<svg width="18" height="19" viewBox="0 0 18 19" fill="none" xmlns="http://www.w3.org/2000/svg">
<g id="majesticons:money-plus">
<g id="Group">
<path id="Vector" d="M13.5 11.75V14M13.5 14V16.25M13.5 14H11.25M13.5 14H15.75" stroke="white" stroke-opacity="0.6" stroke-width="2" stroke-linecap="round" stroke-linejoin="round"/>
<path id="Vector_2" fill-rule="evenodd" clip-rule="evenodd" d="M3.75 4.25C3.15326 4.25 2.58097 4.48705 2.15901 4.90901C1.73705 5.33097 1.5 5.90326 1.5 6.5V12.5C1.5 13.0967 1.73705 13.669 2.15901 14.091C2.58097 14.5129 3.15326 14.75 3.75 14.75H9.06225C9.0206 14.5022 8.99977 14.2513 9 14C9 13.139 9.2415 12.335 9.66075 11.6518C9.32418 11.7551 8.96804 11.7781 8.62098 11.7188C8.27392 11.6595 7.94562 11.5196 7.66249 11.3103C7.37936 11.101 7.1493 10.8281 6.99082 10.5137C6.83233 10.1993 6.74985 9.85209 6.75 9.5C6.75045 9.17656 6.82063 8.85701 6.95576 8.56314C7.09088 8.26928 7.28778 8.008 7.53302 7.79711C7.77827 7.58623 8.0661 7.4307 8.37689 7.34113C8.68769 7.25156 9.01414 7.23005 9.33401 7.27806C9.65387 7.32607 9.95962 7.44249 10.2304 7.61936C10.5012 7.79624 10.7307 8.02942 10.9032 8.30302C11.0757 8.57661 11.1872 8.88418 11.2301 9.20477C11.273 9.52536 11.2463 9.85143 11.1518 10.1607C11.8583 9.72741 12.6712 9.49867 13.5 9.5C14.6528 9.5 15.7043 9.9335 16.5 10.646V6.5C16.5 5.90326 16.2629 5.33097 15.841 4.90901C15.419 4.48705 14.8467 4.25 14.25 4.25H3.75ZM9 8.75C8.80109 8.75 8.61032 8.82902 8.46967 8.96967C8.32902 9.11032 8.25 9.30109 8.25 9.5C8.25 9.69891 8.32902 9.88968 8.46967 10.0303C8.61032 10.171 8.80109 10.25 9 10.25C9.19891 10.25 9.38968 10.171 9.53033 10.0303C9.67098 9.88968 9.75 9.69891 9.75 9.5C9.75 9.30109 9.67098 9.11032 9.53033 8.96967C9.38968 8.82902 9.19891 8.75 9 8.75Z" fill="white" fill-opacity="0.6"/>
</g>
</g>
</svg>
