<svg width="18" height="19" viewBox="0 0 18 19" fill="none" xmlns="http://www.w3.org/2000/svg">
<g id="mdi:store-plus">
<path id="Vector" d="M3 3.5V5H15V3.5M3 5.75L2.25 9.5V11H3V15.5H9.75C9.7125 15.245 9.69 14.9825 9.69 14.7125C9.69 13.7975 9.975 12.8975 10.5 12.1475V11H11.655C12.405 10.4975 13.2825 10.22 14.1825 10.22C14.715 10.22 15.2475 10.3175 15.75 10.505V9.5L15 5.75M4.5 11H9V14H4.5M13.5 11.75V14H11.25V15.5H13.5V17.75H15V15.5H17.25V14H15V11.75" fill="white" fill-opacity="0.6"/>
</g>
</svg>
