<svg width="18" height="19" viewBox="0 0 18 19" fill="none" xmlns="http://www.w3.org/2000/svg">
<g id="material-symbols-light:work-update">
<path id="Vector" d="M13.5 15.947L15.4042 14.0435L14.994 13.634L13.788 14.8393V12.053H13.2112V14.8393L12.006 13.634L11.5957 14.0435L13.5 15.947ZM7.5 5.75H10.5V4.71125C10.5 4.57675 10.4567 4.46625 10.3702 4.37975C10.2837 4.29325 10.1732 4.25 10.0387 4.25H7.96125C7.82675 4.25 7.71625 4.29325 7.62975 4.37975C7.54325 4.46625 7.5 4.57675 7.5 4.71125V5.75ZM13.5 17C12.6645 17 11.9557 16.709 11.3737 16.127C10.7912 15.544 10.5 14.835 10.5 14C10.5 13.165 10.7912 12.4563 11.3737 11.8738C11.9562 11.2913 12.665 11 13.5 11C14.335 11 15.044 11.2913 15.627 11.8738C16.21 12.4563 16.501 13.165 16.5 14C16.499 14.835 16.208 15.544 15.627 16.127C15.046 16.71 14.337 17.001 13.5 17ZM3.46125 15.5C3.11625 15.5 2.828 15.3845 2.5965 15.1535C2.365 14.9225 2.2495 14.634 2.25 14.288V6.962C2.25 6.6165 2.36575 6.32825 2.59725 6.09725C2.82875 5.86625 3.11675 5.7505 3.46125 5.75H6.75V4.71125C6.75 4.36625 6.86575 4.078 7.09725 3.8465C7.32875 3.615 7.617 3.4995 7.962 3.5H10.0387C10.3837 3.5 10.672 3.6155 10.9035 3.8465C11.135 4.0775 11.2505 4.36575 11.25 4.71125V5.75H14.5387C14.8837 5.75 15.1718 5.86575 15.4028 6.09725C15.6337 6.32875 15.7495 6.617 15.75 6.962V10.1105C15.4085 9.9035 15.0465 9.75 14.664 9.65C14.2815 9.55 13.8935 9.5 13.5 9.5C12.252 9.5 11.19 9.938 10.314 10.814C9.438 11.69 9 12.752 9 14C9 14.253 9.0215 14.5053 9.0645 14.7568C9.1075 15.0083 9.173 15.256 9.261 15.5H3.46125Z" fill="white" fill-opacity="0.6"/>
</g>
</svg>
