<svg width="17" height="16" viewBox="0 0 17 16" fill="none" xmlns="http://www.w3.org/2000/svg">
<g id="pepicons-pop:leave">
<g id="Group">
<path id="Vector" fill-rule="evenodd" clip-rule="evenodd" d="M12.5216 5.7856C12.6845 5.64987 12.8947 5.58441 13.106 5.60361C13.3172 5.62281 13.5121 5.7251 13.648 5.888L15.3144 7.888C15.4442 8.0516 15.5049 8.25949 15.4835 8.46723C15.4621 8.67498 15.3603 8.86613 15.1998 8.99983C15.0394 9.13353 14.833 9.19919 14.6248 9.18278C14.4166 9.16637 14.2231 9.06919 14.0856 8.912L12.4192 6.912C12.2834 6.74903 12.218 6.53882 12.2372 6.3276C12.2564 6.11638 12.3587 5.92143 12.5216 5.7856Z" fill="white"/>
<path id="Vector_2" fill-rule="evenodd" clip-rule="evenodd" d="M12.5217 11.0144C12.3587 10.8787 12.2562 10.6838 12.2369 10.4726C12.2175 10.2613 12.2828 10.0511 12.4185 9.888L14.0857 7.888C14.152 7.80444 14.2343 7.73498 14.3279 7.68371C14.4214 7.63244 14.5243 7.60039 14.6304 7.58946C14.7365 7.57853 14.8437 7.58893 14.9457 7.62005C15.0478 7.65117 15.1426 7.70238 15.2245 7.77067C15.3065 7.83896 15.3739 7.92295 15.4229 8.0177C15.4719 8.11245 15.5015 8.21604 15.5099 8.32239C15.5183 8.42873 15.5053 8.53568 15.4717 8.63693C15.4382 8.73819 15.3847 8.83171 15.3145 8.912L13.6481 10.912C13.5122 11.0749 13.3173 11.1772 13.1061 11.1964C12.8948 11.2156 12.6846 11.1501 12.5217 11.0144Z" fill="white"/>
<path id="Vector_3" fill-rule="evenodd" clip-rule="evenodd" d="M14.5 8.4C14.5 8.61217 14.4157 8.81566 14.2657 8.96568C14.1157 9.11571 13.9122 9.2 13.7 9.2H8.50002C8.28785 9.2 8.08437 9.11571 7.93434 8.96568C7.78431 8.81566 7.70002 8.61217 7.70002 8.4C7.70002 8.18783 7.78431 7.98434 7.93434 7.83431C8.08437 7.68429 8.28785 7.6 8.50002 7.6H13.7C13.9122 7.6 14.1157 7.68429 14.2657 7.83431C14.4157 7.98434 14.5 8.18783 14.5 8.4ZM2.90002 2.8C2.90002 2.58783 2.98431 2.38434 3.13434 2.23431C3.28437 2.08429 3.48785 2 3.70002 2H10.9C11.1122 2 11.3157 2.08429 11.4657 2.23431C11.6157 2.38434 11.7 2.58783 11.7 2.8C11.7 3.01217 11.6157 3.21566 11.4657 3.36569C11.3157 3.51571 11.1122 3.6 10.9 3.6H3.70002C3.48785 3.6 3.28437 3.51571 3.13434 3.36569C2.98431 3.21566 2.90002 3.01217 2.90002 2.8ZM2.90002 14C2.90002 13.7878 2.98431 13.5843 3.13434 13.4343C3.28437 13.2843 3.48785 13.2 3.70002 13.2H10.9C11.1122 13.2 11.3157 13.2843 11.4657 13.4343C11.6157 13.5843 11.7 13.7878 11.7 14C11.7 14.2122 11.6157 14.4157 11.4657 14.5657C11.3157 14.7157 11.1122 14.8 10.9 14.8H3.70002C3.48785 14.8 3.28437 14.7157 3.13434 14.5657C2.98431 14.4157 2.90002 14.2122 2.90002 14Z" fill="white"/>
<path id="Vector_4" fill-rule="evenodd" clip-rule="evenodd" d="M10.9 2C11.1122 2 11.3157 2.08429 11.4657 2.23431C11.6157 2.38434 11.7 2.58783 11.7 2.8V6C11.7 6.21217 11.6157 6.41566 11.4657 6.56568C11.3157 6.71571 11.1122 6.8 10.9 6.8C10.6879 6.8 10.4844 6.71571 10.3343 6.56568C10.1843 6.41566 10.1 6.21217 10.1 6V2.8C10.1 2.58783 10.1843 2.38434 10.3343 2.23431C10.4844 2.08429 10.6879 2 10.9 2ZM10.9 10C11.1122 10 11.3157 10.0843 11.4657 10.2343C11.6157 10.3843 11.7 10.5878 11.7 10.8V14C11.7 14.2122 11.6157 14.4157 11.4657 14.5657C11.3157 14.7157 11.1122 14.8 10.9 14.8C10.6879 14.8 10.4844 14.7157 10.3343 14.5657C10.1843 14.4157 10.1 14.2122 10.1 14V10.8C10.1 10.5878 10.1843 10.3843 10.3343 10.2343C10.4844 10.0843 10.6879 10 10.9 10ZM3.70002 2C3.9122 2 4.11568 2.08429 4.26571 2.23431C4.41574 2.38434 4.50002 2.58783 4.50002 2.8V14C4.50002 14.2122 4.41574 14.4157 4.26571 14.5657C4.11568 14.7157 3.9122 14.8 3.70002 14.8C3.48785 14.8 3.28437 14.7157 3.13434 14.5657C2.98431 14.4157 2.90002 14.2122 2.90002 14V2.8C2.90002 2.58783 2.98431 2.38434 3.13434 2.23431C3.28437 2.08429 3.48785 2 3.70002 2Z" fill="white"/>
</g>
</g>
</svg>
