<svg width="17" height="16" viewBox="0 0 17 16" fill="none" xmlns="http://www.w3.org/2000/svg">
<g id="mingcute:add-fill">
<g id="Group">
<path id="Vector" d="M7.50002 13.3333C7.50002 13.5986 7.60538 13.8529 7.79291 14.0404C7.98045 14.228 8.2348 14.3333 8.50002 14.3333C8.76524 14.3333 9.01959 14.228 9.20713 14.0404C9.39466 13.8529 9.50002 13.5986 9.50002 13.3333V9H13.8334C14.0986 9 14.3529 8.89465 14.5405 8.70711C14.728 8.51958 14.8334 8.26522 14.8334 8C14.8334 7.73479 14.728 7.48043 14.5405 7.2929C14.3529 7.10536 14.0986 7 13.8334 7H9.50002V2.66667C9.50002 2.40146 9.39466 2.1471 9.20713 1.95956C9.01959 1.77203 8.76524 1.66667 8.50002 1.66667C8.2348 1.66667 7.98045 1.77203 7.79291 1.95956C7.60538 2.1471 7.50002 2.40146 7.50002 2.66667V7H3.16669C2.90147 7 2.64712 7.10536 2.45958 7.2929C2.27204 7.48043 2.16669 7.73479 2.16669 8C2.16669 8.26522 2.27204 8.51958 2.45958 8.70711C2.64712 8.89465 2.90147 9 3.16669 9H7.50002V13.3333Z" fill="white"/>
</g>
</g>
</svg>
